<svg width="36" height="36" viewBox="0 0 36 36" fill="none" xmlns="http://www.w3.org/2000/svg">
<g id="devicon:google" clip-path="url(#clip0_3_937)">
<path id="Vector" d="M12.541 1.18406C8.94399 2.43187 5.84198 4.80027 3.69055 7.94137C1.53912 11.0825 0.451678 14.8307 0.587947 18.6355C0.724215 22.4403 2.07701 26.1012 4.44764 29.0803C6.81826 32.0595 10.0818 34.1999 13.7588 35.1872C16.7398 35.9564 19.863 35.9902 22.86 35.2856C25.575 34.6758 28.085 33.3713 30.1444 31.5C32.2877 29.4928 33.8435 26.9395 34.6444 24.1144C35.5146 21.0421 35.6695 17.8114 35.0972 14.67H18.3572V21.6141H28.0519C27.8581 22.7216 27.4429 23.7786 26.8311 24.722C26.2193 25.6653 25.4235 26.4755 24.4913 27.1041C23.3076 27.8874 21.973 28.4144 20.5735 28.6509C19.1699 28.912 17.7302 28.912 16.3266 28.6509C14.9039 28.3571 13.5581 27.7699 12.375 26.9269C10.4742 25.5813 9.04692 23.6698 8.29689 21.465C7.53439 19.2189 7.53439 16.7839 8.29689 14.5378C8.83078 12.9634 9.71336 11.5299 10.8788 10.3444C12.2124 8.96272 13.9009 7.97511 15.7589 7.4899C17.6169 7.00468 19.5726 7.04061 21.4116 7.59374C22.8482 8.03453 24.1619 8.80503 25.2478 9.84374C26.341 8.75624 27.4322 7.66593 28.5216 6.57281C29.0841 5.98499 29.6972 5.42531 30.2513 4.82343C28.5934 3.28083 26.6475 2.08041 24.525 1.29093C20.6598 -0.112534 16.4306 -0.150251 12.541 1.18406Z" fill="white"/>
<path id="Vector_2" d="M12.5409 1.18405C16.4302 -0.151164 20.6595 -0.11444 24.525 1.28811C26.6478 2.08296 28.5929 3.28915 30.2484 4.83749C29.6859 5.43936 29.0925 6.00186 28.5187 6.58686C27.4275 7.67624 26.3372 8.76186 25.2478 9.84374C24.1619 8.80502 22.8482 8.03452 21.4116 7.59374C19.5732 7.03867 17.6175 7.00066 15.759 7.48389C13.9006 7.96712 12.2111 8.95291 10.8759 10.3331C9.71053 11.5187 8.82794 12.9522 8.29406 14.5266L2.46375 10.0125C4.55064 5.87407 8.16398 2.70849 12.5409 1.18405Z" fill="#E33629"/>
<path id="Vector_3" d="M0.916857 14.4844C1.23 12.9312 1.75027 11.4272 2.46373 10.0125L8.29404 14.5378C7.53155 16.7839 7.53155 19.2189 8.29404 21.465C6.35154 22.965 4.40811 24.4725 2.46373 25.9875C0.678218 22.4334 0.133668 18.3839 0.916857 14.4844Z" fill="#F8BD00"/>
<path id="Vector_4" d="M18.3572 14.6672H35.0972C35.6695 17.8086 35.5146 21.0393 34.6444 24.1115C33.8435 26.9366 32.2877 29.49 30.1444 31.4972C28.2628 30.029 26.3728 28.5722 24.4913 27.104C25.4241 26.4748 26.2203 25.6638 26.8321 24.7194C27.444 23.7751 27.8588 22.717 28.0519 21.6084H18.3572C18.3544 19.2965 18.3572 16.9819 18.3572 14.6672Z" fill="#587DBD"/>
<path id="Vector_5" d="M2.46094 25.9875C4.40531 24.4875 6.34875 22.98 8.29125 21.465C9.04277 23.6706 10.4721 25.5822 12.375 26.9269C13.5617 27.766 14.9105 28.3484 16.335 28.6369C17.7386 28.8979 19.1783 28.8979 20.5819 28.6369C21.9815 28.4003 23.316 27.8734 24.4997 27.09C26.3813 28.5581 28.2712 30.015 30.1528 31.4831C28.0938 33.3555 25.5837 34.6609 22.8684 35.2716C19.8715 35.9761 16.7482 35.9423 13.7672 35.1731C11.4095 34.5436 9.20721 33.4339 7.29844 31.9134C5.2783 30.3092 3.62822 28.2879 2.46094 25.9875Z" fill="#319F43"/>
</g>
<defs>
<clipPath id="clip0_3_937">
<rect width="36" height="36" fill="white"/>
</clipPath>
</defs>
</svg>
