<svg width="96" height="96" viewBox="0 0 96 96" fill="none" xmlns="http://www.w3.org/2000/svg">
<g id="Group 30">
<ellipse id="Ellipse 22" cx="48" cy="48" rx="48" ry="48" fill="#FFDFE6"/>
<g id="Mask group">
<mask id="mask0_86_542" style="mask-type:alpha" maskUnits="userSpaceOnUse" x="0" y="0" width="96" height="96">
<ellipse id="Ellipse 23" cx="48" cy="48" rx="48" ry="48" fill="#FFEADF"/>
</mask>
<g mask="url(#mask0_86_542)">
<g id="Group">
<path id="Vector" d="M19.807 70.756L16.7803 95.9996H-1.92859L-1.30841 91.8137C-1.08265 89.0601 -0.393119 86.4161 0.691485 83.9512C2.53012 79.8414 5.56753 76.4967 9.29607 74.2007V74.1943C9.487 74.0724 9.67922 73.9685 9.87014 73.8521C12.8669 72.125 16.2584 71.0462 19.807 70.756Z" fill="#1E1E1E"/>
<path id="Vector_2" d="M96.8256 95.9996H78.0639L74.8401 69.069C76.9693 69.2434 79.0498 69.7014 81.0152 70.4196C86.692 72.4721 91.4632 76.6354 93.9566 82.2758C95.0412 84.723 95.7249 87.3727 95.9565 90.127L96.8256 95.9996Z" fill="#1E1E1E"/>
<path id="XMLID_2_" d="M84.2607 72.1138L81.062 96H12.1602L9.29628 74.2008V74.1944C9.4872 74.0724 9.67942 73.9686 9.87035 73.8522C14.1933 71.303 24.0073 68.3705 31.018 66.468C35.9644 65.1266 41.0668 64.4616 46.1935 64.4848L51.6445 64.5106C55.4505 64.5277 59.2426 64.9267 62.9701 65.6994C69.0021 66.9482 77.9517 68.9529 81.0137 70.42C82.1863 70.9702 83.2699 71.5394 84.2607 72.1138Z" fill="black"/>
<g id="Group_2">
<path id="Vector_3" d="M63.3842 41.2077C63.3842 41.2077 64.9293 45.4445 58.0205 47.9066L58.501 82.5342L38.0071 73.3482L39.8257 53.3315L47.6882 49.9526L49.563 46.5659C49.563 46.5659 52.2846 43.0544 52.6136 42.7087C52.9419 42.3626 55.8539 39.8009 55.8539 39.8009L62.1119 41.6892L63.3842 41.2077Z" fill="#FAB9C9"/>
<path id="Vector_4" d="M54.4916 51.4601C55.7771 46.366 52.4556 46.5553 48.7286 48.0769L47.6905 49.9523L40.3949 53.0875L39.6222 55.803L38.9011 64.4715C38.9007 64.4715 51.865 61.872 54.4916 51.4601Z" fill="#1B1E28"/>
<path id="Vector_5" d="M34.1495 38.3844C34.1495 38.3844 28.464 35.8076 30.461 29.9617C32.4577 24.1159 32.5073 24.1162 32.0929 21.3607C31.6778 18.6055 32.7376 11.7463 40.7852 13.6682C48.8335 15.5903 49.9232 15.798 54.0307 14.0826C58.1382 12.3672 63.8051 16.1102 62.9211 25.2073C62.1703 32.9395 60.5313 30.8009 62.089 34.9419C63.6474 39.0827 62.7308 40.1176 60.0001 40.7704C53.6734 42.2823 50.6005 39.2675 50.6005 39.1252C50.6005 38.983 49.3527 35.8121 48.5729 35.3964C47.793 34.9803 40.6707 33.0053 40.5153 33.213C40.3592 33.4207 38.0084 36.6825 38.0084 36.6825L34.1495 38.3844Z" fill="#1B1E28"/>
<g id="Group_3">
<g id="Group_4">
<path id="Vector_6" d="M30.9011 39.2424C33.2119 39.3682 35.5553 39.255 37.8703 39.2337C38.0512 39.2321 38.0518 38.9502 37.8703 38.9518C35.5553 38.9702 33.2103 38.8957 30.9011 39.0608C30.7847 39.0686 30.7837 39.2369 30.9011 39.2424Z" fill="#1B1E28"/>
</g>
</g>
<path id="Vector_7" d="M34.1627 30.4045V48.2597C34.1627 48.2597 33.6047 56.7378 39.9692 57.0778C46.3336 57.4177 50.1712 57.1023 52.2365 54.8428C54.3012 52.5836 56.2447 48.5509 54.7863 37.8381C53.3292 27.1246 51.7992 25.3034 51.7992 25.3034L43.8554 22.8981L36.3483 24.2097L34.1627 30.4045Z" fill="#FAB9C9"/>
<path id="Vector_8" d="M34.1527 49.016C34.1917 51.1004 34.7732 56.8008 39.9692 57.0778C46.3336 57.4177 50.1711 57.1023 52.2365 54.8428C53.7736 53.1609 55.2417 50.4941 55.2917 44.8224C55.2823 42.9786 55.1291 40.8333 54.7866 38.3141C54.587 36.8428 54.4093 35.5067 54.2506 34.2876C52.9776 26.7073 51.7995 25.3037 51.7995 25.3037L43.8557 22.8984L36.3487 24.2101L34.2636 30.1191L34.1627 30.8806V31.0625C34.1627 31.0625 34.5452 30.0788 36.1306 30.1336C37.7161 30.1881 37.5516 29.4409 39.4099 27.382C41.2689 25.3237 42.1797 27.9286 43.648 29.1493C45.1164 30.37 47.1899 28.7485 49.5945 28.6756C52.0001 28.6024 51.5257 31.4814 51.071 32.2651C50.6149 33.0485 50.196 34.1599 51.6544 34.6885C53.1115 35.2164 53.621 35.4531 53.8042 39.024C53.9858 42.5951 53.0205 45.1281 51.18 46.3298C49.34 47.5328 45.4593 47.2593 42.7624 45.2007C40.0659 43.1418 37.1411 45.1191 35.7301 45.729C34.9848 46.0505 34.2617 45.6338 34.163 45.5729V48.2594V48.7351C34.1627 48.7357 34.1562 48.8393 34.1527 49.016Z" fill="#E5A0B1"/>
<g id="Group_5">
<g id="Group_6">
<path id="Vector_9" d="M39.6603 35.0292C39.3713 37.3216 39.0272 39.9101 39.331 42.2048C39.4426 43.0478 39.9403 43.6999 41.0784 43.4626C41.3693 43.4016 41.2455 43.0536 40.9549 43.101C39.1666 43.3935 39.7819 39.6866 39.799 39.0358C39.8354 37.7003 39.8999 36.3654 39.8854 35.0292C39.8838 34.9102 39.6742 34.9147 39.6603 35.0292Z" fill="#EAAABA"/>
</g>
</g>
<g id="Group_7">
<path id="Vector_10" d="M43.3921 41.0484C43.906 41.0484 44.3225 40.6318 44.3225 40.1179C44.3225 39.6041 43.906 39.1875 43.3921 39.1875C42.8782 39.1875 42.4616 39.6041 42.4616 40.1179C42.4616 40.6318 42.8782 41.0484 43.3921 41.0484Z" fill="#1B1E28"/>
</g>
<g id="Group_8">
<path id="Vector_11" d="M36.3275 41.0484C36.8414 41.0484 37.2579 40.6318 37.2579 40.1179C37.2579 39.6041 36.8414 39.1875 36.3275 39.1875C35.8136 39.1875 35.397 39.6041 35.397 40.1179C35.397 40.6318 35.8136 41.0484 36.3275 41.0484Z" fill="#1B1E28"/>
</g>
<g id="Group_9">
<g id="Group_10">
<path id="Vector_12" d="M34.6136 36.8762C35.1596 36.6566 35.6121 36.348 36.2162 36.2741C36.8838 36.1906 37.4188 36.3844 38.0367 36.594C38.2931 36.6805 38.3938 36.3273 38.208 36.1886C37.2198 35.4511 35.1612 35.5707 34.4382 36.6476C34.3659 36.754 34.4875 36.9275 34.6136 36.8762Z" fill="#1B1E28"/>
</g>
</g>
<g id="Group_11">
<g id="Group_12">
<path id="Vector_13" d="M42.5813 36.5874C43.1544 36.3652 43.6062 36.1172 44.248 36.1465C44.8898 36.1765 45.4126 36.4416 46.0041 36.6509C46.2618 36.7425 46.3576 36.3852 46.1747 36.2455C45.2407 35.5321 43.165 35.2477 42.4052 36.3587C42.331 36.4655 42.4552 36.6361 42.5813 36.5874Z" fill="#1B1E28"/>
</g>
</g>
<g id="Group_13">
<g id="Group_14">
<path id="Vector_14" d="M48.1856 41.8953C48.5155 42.7067 47.8889 43.7275 46.7853 44.1761C45.6816 44.6253 44.5203 44.3309 44.1907 43.5198C43.8607 42.7099 44.488 41.6889 45.5917 41.2396C46.6946 40.792 47.8566 41.0848 48.1856 41.8953Z" fill="#EAAABA"/>
</g>
</g>
<path id="Vector_15" d="M35.6399 41.4182C35.1359 41.1922 34.615 41.1235 34.1609 41.1909V44.2957C34.2112 44.3221 34.2622 44.3479 34.3154 44.3718C35.4245 44.8694 36.6213 44.6124 36.9867 43.7961C37.3525 42.9814 36.7491 41.9172 35.6399 41.4182Z" fill="#EAAABA"/>
<g id="Group_15">
<g id="Group_16">
<g id="Group_17">
<path id="Vector_16" d="M38.9073 38.5736C39.0988 40.5615 38.0084 42.4892 36.0008 43.0184C33.7374 43.6151 31.435 42.0603 31.0854 39.7737C30.7577 37.6238 32.2484 35.6104 34.395 35.2817C36.621 34.9424 38.4712 36.4689 38.9108 38.6029C38.9398 38.7413 39.1501 38.6823 39.1211 38.5452C38.6631 36.3212 36.6839 34.6767 34.3476 35.0456C32.0952 35.4017 30.5165 37.5486 30.8471 39.8049C31.177 42.057 33.3504 43.6512 35.5941 43.3219C37.9336 42.9791 39.3439 40.8412 39.1259 38.5729C39.1124 38.4352 38.894 38.4343 38.9073 38.5736Z" fill="#1B1E28"/>
</g>
</g>
<g id="Group_18">
<g id="Group_19">
<path id="Vector_17" d="M48.9323 39.2799C48.8166 41.4291 47.2047 43.2471 44.9651 43.2471C42.8146 43.2471 40.9973 41.4291 40.9973 39.2799C40.9973 37.2774 42.5657 35.5626 44.541 35.3568C46.9363 35.1088 48.8072 36.9413 48.9323 39.2799C48.9398 39.4195 49.1584 39.4205 49.151 39.2799C49.0281 37.0058 47.3388 35.094 44.9651 35.094C42.6937 35.094 40.768 37.0007 40.7789 39.2799C40.7896 41.4781 42.544 43.3377 44.7429 43.4528C47.2021 43.5822 49.0236 41.641 49.151 39.2799C49.1587 39.1389 48.9401 39.1389 48.9323 39.2799Z" fill="#1B1E28"/>
</g>
</g>
<g id="Group_20">
<g id="Group_21">
<path id="Vector_18" d="M38.9373 39.0391C39.5375 39.1455 40.2576 39.151 40.8617 39.0662C40.9462 39.0546 40.9462 38.9085 40.8617 38.8965C40.2576 38.813 39.5388 38.8175 38.9373 38.9239C38.8792 38.9336 38.8792 39.0284 38.9373 39.0391Z" fill="#1B1E28"/>
</g>
</g>
<g id="Group_22">
<g id="Group_23">
<path id="Vector_19" d="M48.8652 39.1128C51.1763 39.2383 53.5196 39.125 55.8343 39.1041C56.0152 39.1025 56.0159 38.8203 55.8343 38.8216C53.5193 38.8403 51.1743 38.7658 48.8652 38.9306C48.7487 38.939 48.7481 39.1063 48.8652 39.1128Z" fill="#1B1E28"/>
</g>
</g>
</g>
<path id="Vector_20" d="M63.3695 41.2077C61.6419 36.8041 55.0239 39.8009 55.0239 39.8009L54.4868 44.1081L57.7482 42.8628C57.8652 43.155 60.9059 43.2134 60.9059 43.2134L63.3695 41.2077Z" fill="#FAB9C9"/>
<g id="Group_24">
<g id="Group_25">
<path id="Vector_21" d="M57.593 40.0121C59.4071 39.7345 61.159 41.3238 60.9529 43.1776C60.9213 43.4691 60.4604 43.4724 60.4917 43.1776C60.661 41.6537 59.2619 40.2198 57.7152 40.4562C57.4249 40.5011 57.3001 40.0573 57.593 40.0121Z" fill="#E6A0B1"/>
</g>
<g id="Group_26">
<path id="Vector_22" d="M60.1039 41.3654C59.3438 41.6976 58.7748 42.311 58.5265 43.1063C58.4394 43.3895 57.9944 43.2685 58.0831 42.9841C58.3627 42.083 59.0035 41.3463 59.8714 40.9674C60.1413 40.85 60.3761 41.2467 60.1039 41.3654Z" fill="#E6A0B1"/>
</g>
</g>
<g id="Group_27">
<path id="Vector_23" d="M36.8139 15.4448C34.1525 17.2438 33.6078 20.6646 34.8366 23.505C34.8762 23.5972 35.0104 23.5172 34.9714 23.4263C33.7784 20.6701 34.3031 17.3295 36.8926 15.5793C36.9758 15.5232 36.8971 15.3877 36.8139 15.4448Z" fill="white"/>
</g>
<g id="Group_28">
<path id="Vector_24" d="M32.1832 34.6557C32.406 35.1056 32.6102 35.5603 32.8849 35.9815C32.9398 36.0654 33.0752 35.9873 33.0198 35.9028C32.7443 35.4813 32.5405 35.0265 32.318 34.5773C32.2735 34.4873 32.1387 34.5663 32.1832 34.6557Z" fill="white"/>
</g>
<g id="Group_29">
<path id="Vector_25" d="M51.8767 29.6779C51.8767 29.8514 51.8767 30.0243 51.8767 30.1978C51.8767 30.2981 52.0319 30.2981 52.0319 30.1978C52.0319 30.0243 52.0319 29.8514 52.0319 29.6779C52.0319 29.5776 51.8767 29.5776 51.8767 29.6779Z" fill="white"/>
</g>
<g id="Group_30">
<path id="Vector_26" d="M51.6762 31.9262C51.6291 31.99 51.6194 32.0703 51.5723 32.1342C51.5123 32.2151 51.6478 32.2926 51.7071 32.2129C51.7548 32.149 51.7645 32.0687 51.811 32.0049C51.8706 31.9239 51.7352 31.8459 51.6762 31.9262Z" fill="white"/>
</g>
<g id="Group_31">
<path id="Vector_27" d="M60.7089 31.6017C60.5251 33.3533 60.5602 34.7552 61.2317 36.4049C61.2694 36.4968 61.42 36.4571 61.3823 36.3639C60.7221 34.7414 60.6844 33.3184 60.865 31.6017C60.876 31.5014 60.7192 31.5024 60.7089 31.6017Z" fill="white"/>
</g>
<path id="Vector_28" d="M39.969 57.0778C46.3334 57.4177 50.171 57.1023 52.2363 54.8428C54.301 52.5836 56.2445 48.5509 54.7861 37.8381C53.329 27.1246 53.0313 23.3096 53.0313 23.3096L47.4944 20.307L35.3996 21.0481L34.1625 30.4042V30.5861C34.1625 30.5861 34.545 29.6027 36.1304 29.6569C37.7159 29.7117 37.5514 28.9645 39.4097 26.9059C41.2687 24.8476 42.1795 27.4526 43.6479 28.6733C45.1162 29.8936 47.1897 28.2724 49.5943 28.1995C51.9999 28.1263 51.5255 31.005 51.0708 31.7887C50.6147 32.5724 50.1958 33.6835 51.6542 34.2121C53.1113 34.7403 53.6209 34.9767 53.804 38.5476C53.9856 42.1187 53.0203 44.6517 51.1798 45.8537C49.3398 47.0564 45.4591 46.7832 42.7622 44.7243C40.0657 42.6657 37.1409 44.643 35.7299 45.2529C34.9846 45.5741 34.2615 45.1574 34.1628 45.0968V48.2593C34.1625 48.2597 33.6045 56.7378 39.969 57.0778Z" fill="#1B1E28"/>
<g id="Group_32">
<path id="Vector_29" d="M33.4172 25.1035C33.474 26.7406 32.4755 28.0697 31.8579 29.5177C31.4212 30.5411 31.359 31.6505 31.3899 32.7451C31.3925 32.8454 31.5486 32.8461 31.5457 32.7451C31.4986 31.0797 31.8792 29.7787 32.6061 28.2941C33.1302 27.2247 33.6153 26.3223 33.573 25.1035C33.5698 25.0032 33.4137 25.0029 33.4172 25.1035Z" fill="white"/>
</g>
<g id="Group_33">
<path id="Vector_30" d="M51.8298 17.5889C53.6672 17.8698 55.5452 17.4818 57.3548 17.9956C60.8747 18.9937 60.0545 24.22 58.9573 26.6759C58.9164 26.7669 59.0512 26.8459 59.0915 26.7543C60.1874 24.3022 60.6292 21.1187 58.9157 18.8334C57.4064 16.821 53.9678 17.7588 51.8714 17.4386C51.7734 17.4234 51.7305 17.5737 51.8298 17.5889Z" fill="white"/>
</g>
<g id="Group_34">
<path id="Vector_31" d="M42.9324 25.8312C43.0897 30.5373 48.9894 25.3091 51.0135 27.6541C51.079 27.7299 51.1893 27.6196 51.1238 27.5435C49.0565 25.1478 43.2362 30.2487 43.0888 25.8309C43.0855 25.7309 42.9294 25.7306 42.9324 25.8312Z" fill="white"/>
</g>
<g id="Group_35">
<path id="Vector_32" d="M39.7367 57.191C42.3484 57.2081 45.0007 57.5248 47.6005 57.1443C50.3999 56.7344 52.304 55.6459 53.762 53.2142C53.8136 53.1277 53.6788 53.0497 53.6272 53.1358C52.0273 55.8026 49.8048 56.7863 46.7771 57.0775C44.4376 57.3023 42.0788 57.0501 39.7367 57.0349C39.6367 57.0343 39.6367 57.1904 39.7367 57.191Z" fill="white"/>
</g>
<g id="Group_36">
<g id="Group_37">
<path id="Vector_33" d="M39.3619 47.0698C40.0169 48.5311 42.7218 47.9428 42.7244 46.347C42.7244 46.1767 42.4906 46.1135 42.4045 46.2606C42.0997 46.7802 41.9001 47.2684 41.2492 47.4361C40.5678 47.6122 40.0701 47.2517 39.5467 46.8843C39.4235 46.7982 39.3129 46.9601 39.3619 47.0698Z" fill="white"/>
</g>
</g>
</g>
<path id="Vector_34" d="M38.5414 68.7211C44.2112 75.3606 50.3956 74.4943 56.9165 68.7211L56.9171 95.9994H38.5418V68.7211H38.5414Z" fill="#E3EEF1"/>
<path id="Vector_35" d="M39.0388 61.8306L26.1539 66.2528C32.09 76.4387 35.2309 86.3246 35.2038 95.8722H40.9629C43.9136 85.5709 42.9044 74.1169 39.0388 61.8306Z" fill="#1E1E1E"/>
<path id="Vector_36" d="M58.0679 61.8306L70.9531 66.2528C65.0164 76.4387 61.8758 86.3246 61.9025 95.8722H56.1434C53.1938 85.5709 54.2026 74.1169 58.0679 61.8306Z" fill="#1E1E1E"/>
</g>
</g>
</g>
</g>
</svg>
