<svg xmlns="http://www.w3.org/2000/svg" width="244" height="90" fill="none" viewBox="0 0 244 90"><path fill="#000" d="M5.26714 64V26.9091H19.9007C22.7018 26.9091 25.0924 27.4102 27.0725 28.4123C29.0647 29.4023 30.58 30.8089 31.6183 32.6321C32.6688 34.4432 33.194 36.5742 33.194 39.0252C33.194 41.4883 32.6627 43.6072 31.6002 45.3821C30.5377 47.1449 28.9983 48.4972 26.982 49.4389C24.9777 50.3807 22.5509 50.8516 19.7014 50.8516H9.9035V44.549H18.4337C19.9308 44.549 21.1745 44.3437 22.1645 43.9332C23.1546 43.5227 23.8911 42.907 24.374 42.0859C24.8691 41.2649 25.1166 40.2447 25.1166 39.0252C25.1166 37.7937 24.8691 36.7553 24.374 35.9102C23.8911 35.065 23.1485 34.4251 22.1464 33.9904C21.1563 33.5437 19.9067 33.3203 18.3975 33.3203H13.1091V64H5.26714ZM25.2977 47.1207L34.5161 64H25.8591L16.8399 47.1207H25.2977ZM77.0808 26.9091L86.0456 55.0895H86.3897L95.3727 26.9091H104.066L91.2797 64H81.1738L68.3695 26.9091H77.0808ZM142.633 64H134.229L147.034 26.9091H157.139L169.926 64H161.522L152.231 35.3849H151.942L142.633 64ZM142.107 49.4208H161.957V55.5423H142.107V49.4208ZM213.423 64H205.02L217.824 26.9091H227.93L240.716 64H232.313L223.022 35.3849H222.732L213.423 64ZM212.898 49.4208H232.747V55.5423H212.898V49.4208Z"/><path stroke="#000" stroke-linecap="round" stroke-width="4" d="M2 2L242 2.00002"/><path stroke="#000" stroke-linecap="round" stroke-width="4" d="M2 88L242 88"/></svg>